<svg xmlns="http://www.w3.org/2000/svg" xmlns:xlink="http://www.w3.org/1999/xlink" width="60" height="60" viewBox="0 0 60 60">
  <defs>
    <clipPath id="clip-path">
      <rect id="長方形_21" data-name="長方形 21" width="20.904" height="34.872" fill="none"/>
    </clipPath>
  </defs>
  <g id="sp" transform="translate(-958 -4239)">
    <g id="グループ_12" data-name="グループ 12" transform="translate(977.548 4251.179)">
      <g id="グループ_11" data-name="グループ 11" transform="translate(0 0)" clip-path="url(#clip-path)">
        <path id="パス_1" data-name="パス 1" d="M17.46,0H3.444A3.444,3.444,0,0,0,0,3.444V31.428a3.444,3.444,0,0,0,3.444,3.444H17.46A3.444,3.444,0,0,0,20.9,31.428V3.444A3.444,3.444,0,0,0,17.46,0m2.152,31.428A2.152,2.152,0,0,1,17.46,33.58H3.444a2.153,2.153,0,0,1-2.152-2.153V3.444A2.153,2.153,0,0,1,3.444,1.292H5.413a.516.516,0,0,1,.517.517A1.507,1.507,0,0,0,7.437,3.315h6.03a1.507,1.507,0,0,0,1.507-1.507.517.517,0,0,1,.517-.517H17.46a2.152,2.152,0,0,1,2.152,2.152Zm-5.286.225H6.578a.43.43,0,1,0,0,.861h7.749a.43.43,0,0,0,0-.861" transform="translate(0 0)" fill="#fff"/>
      </g>
    </g>
    <g id="楕円形_1" data-name="楕円形 1" transform="translate(958 4239)" fill="none" stroke="#fff" stroke-width="1">
      <circle cx="30" cy="30" r="30" stroke="none"/>
      <circle cx="30" cy="30" r="29.5" fill="none"/>
    </g>
  </g>
</svg>
